<svg width="2269" height="400" viewBox="0 0 2269 400" fill="none" xmlns="http://www.w3.org/2000/svg">
<mask id="path-1-outside-1_431_108" maskUnits="userSpaceOnUse" x="1018.27" y="61" width="1250" height="285" fill="black">
<rect fill="white" x="1018.27" y="61" width="1250" height="285"/>
<path d="M1104.44 342.374C1087.65 342.374 1073.85 340.576 1063.03 336.981C1052.21 333.501 1043.74 327.006 1037.62 317.495C1031.57 307.983 1027.32 294.297 1024.85 276.434C1022.47 258.572 1021.27 235.316 1021.27 206.667V199.707C1021.27 176.046 1022.02 156.211 1023.51 140.205C1025 124.082 1027.58 110.976 1031.24 100.885C1034.89 90.7935 1039.85 83.0802 1046.12 77.7447C1052.47 72.4092 1060.41 68.8136 1069.97 66.9577C1079.52 64.9859 1091.01 64 1104.44 64H1149.56C1162.99 64 1174.48 64.9859 1184.03 66.9577C1193.58 68.8136 1201.5 72.4092 1207.76 77.7447C1214.11 83.0802 1219.11 90.7935 1222.76 100.885C1226.42 110.976 1228.99 124.082 1230.49 140.205C1231.98 156.211 1232.73 176.046 1232.73 199.707V206.667C1232.73 235.316 1231.5 258.572 1229.03 276.434C1226.64 294.297 1222.39 307.983 1216.27 317.495C1210.23 327.006 1201.79 333.501 1190.97 336.981C1180.15 340.576 1166.35 342.374 1149.56 342.374H1104.44ZM1104.44 313.493H1149.56C1160.23 313.493 1169.22 312.913 1176.53 311.753C1183.85 310.593 1189.78 308.099 1194.33 304.272C1198.96 300.444 1202.47 294.645 1204.85 286.873C1207.32 279.102 1209 268.721 1209.89 255.73C1210.79 242.739 1211.23 226.385 1211.23 206.667V199.707C1211.23 179.293 1210.79 162.475 1209.89 149.252C1209 136.029 1207.32 125.59 1204.85 117.935C1202.47 110.28 1198.96 104.712 1194.33 101.233C1189.78 97.6369 1183.85 95.3751 1176.53 94.4472C1169.22 93.4033 1160.23 92.8813 1149.56 92.8813H1104.44C1093.77 92.8813 1084.78 93.4033 1077.47 94.4472C1070.15 95.3751 1064.18 97.6369 1059.56 101.233C1055 104.712 1051.5 110.28 1049.03 117.935C1046.65 125.59 1045 136.029 1044.11 149.252C1043.21 162.475 1042.76 179.293 1042.76 199.707V206.667C1042.76 226.385 1043.21 242.739 1044.11 255.73C1045 268.721 1046.65 279.102 1049.03 286.873C1051.5 294.645 1055 300.444 1059.56 304.272C1064.18 308.099 1070.15 310.593 1077.47 311.753C1084.78 312.913 1093.77 313.493 1104.44 313.493Z"/>
<path d="M1477.02 260.438C1477.02 250.224 1476.5 242.191 1475.45 236.339C1474.4 230.486 1472.04 226.183 1468.37 223.429C1464.69 220.56 1459 218.724 1451.28 217.92C1443.56 217.002 1433 216.371 1419.58 216.027L1357.08 214.65C1341.65 214.305 1329.24 212.871 1319.88 210.346C1310.51 207.822 1303.43 203.863 1298.63 198.469C1293.84 192.961 1290.61 185.616 1288.96 176.436C1287.39 167.255 1286.6 155.779 1286.6 142.009C1286.6 126.976 1287.69 114.582 1289.86 104.827C1292.11 95.0731 1296.12 87.4418 1301.89 81.9335C1307.74 76.4252 1315.98 72.5808 1326.62 70.4004C1337.26 68.1053 1351.01 66.9577 1367.87 66.9577H1415.98C1431.27 66.9577 1444.01 67.7036 1454.2 69.1955C1464.39 70.6873 1472.49 74.13 1478.48 79.5236C1484.48 84.9172 1488.75 93.2944 1491.3 104.655C1493.7 115.044 1495 128.984 1495.2 146.474C1495.24 149.235 1492.99 151.476 1490.23 151.476H1478.65C1475.89 151.476 1473.65 149.235 1473.61 146.474C1473.42 133.561 1472.46 123.638 1470.73 116.705C1468.85 108.787 1465.71 103.393 1461.28 100.524C1456.94 97.6552 1451.06 96.1059 1443.64 95.8764C1436.22 95.6469 1427 95.5322 1415.98 95.5322H1369C1355.58 95.5322 1344.83 95.9338 1336.74 96.7371C1328.72 97.5404 1322.65 99.3765 1318.53 102.245C1314.41 105.114 1311.63 109.705 1310.21 116.016C1308.86 122.328 1308.19 130.992 1308.19 142.009C1308.19 151.304 1308.67 158.763 1309.65 164.386C1310.62 170.009 1312.79 174.313 1316.17 177.296C1319.61 180.165 1324.9 182.174 1332.02 183.321C1339.14 184.354 1348.84 184.985 1361.13 185.215L1428.12 186.592C1443.86 186.936 1456.41 188.37 1465.78 190.895C1475.22 193.305 1482.27 197.264 1486.91 202.772C1491.63 208.281 1494.74 215.74 1496.24 225.15C1497.82 234.445 1498.6 246.208 1498.6 260.438C1498.6 275.93 1497.63 288.955 1495.68 299.512C1493.81 309.955 1490.14 318.333 1484.67 324.644C1479.19 330.956 1471.29 335.489 1460.95 338.243C1450.61 340.997 1437 342.374 1420.14 342.374H1367.54C1352.17 342.374 1339.29 341.341 1328.87 339.276C1318.45 337.21 1310.13 333.079 1303.91 326.882C1297.77 320.57 1293.35 311.218 1290.65 298.824C1288.17 287.447 1286.83 272.59 1286.63 254.252C1286.6 251.49 1288.84 249.249 1291.6 249.249H1303.19C1305.95 249.249 1308.18 251.49 1308.21 254.251C1308.38 268.03 1309.23 278.871 1310.77 286.774C1312.5 295.611 1315.49 301.98 1319.76 305.882C1324.11 309.668 1330.14 311.964 1337.86 312.767C1345.66 313.455 1355.55 313.8 1367.54 313.8H1419.02C1432.43 313.8 1443.04 313.169 1450.83 311.906C1458.62 310.529 1464.39 308.004 1468.14 304.332C1471.89 300.545 1474.29 295.152 1475.34 288.152C1476.46 281.151 1477.02 271.913 1477.02 260.438Z"/>
<path d="M1648.16 342.374C1645.4 342.374 1643.16 340.136 1643.16 337.374V229.191C1643.16 228.328 1642.93 227.48 1642.51 226.729L1556.7 75.0378C1554.82 71.7047 1557.22 67.576 1561.05 67.576H1576.39C1578.21 67.576 1579.89 68.5699 1580.77 70.1693L1648.85 194.132C1650.75 197.59 1655.72 197.59 1657.61 194.132L1725.69 70.1693C1726.57 68.57 1728.25 67.576 1730.07 67.576H1745.41C1749.24 67.576 1751.65 71.7047 1749.76 75.0378L1663.95 226.729C1663.53 227.48 1663.31 228.328 1663.31 229.191V337.374C1663.31 340.136 1661.07 342.374 1658.31 342.374H1648.16Z"/>
<path d="M1812.86 342.374C1810.1 342.374 1807.86 340.136 1807.86 337.374V72.5761C1807.86 69.8146 1810.1 67.576 1812.86 67.576H1825.6C1827.26 67.576 1828.81 68.3991 1829.74 69.7731L1985.54 299.915C1985.56 299.952 1985.61 299.974 1985.65 299.974C1985.72 299.974 1985.78 299.914 1985.78 299.84V72.5761C1985.78 69.8146 1988.02 67.576 1990.78 67.576H2000.36C2003.12 67.576 2005.36 69.8146 2005.36 72.576V337.374C2005.36 340.136 2003.12 342.374 2000.36 342.374H1987.63C1985.97 342.374 1984.41 341.544 1983.48 340.161L1827.68 108.068C1827.65 108.031 1827.61 108.009 1827.57 108.009C1827.5 108.009 1827.44 108.068 1827.44 108.142V337.374C1827.44 340.136 1825.2 342.374 1822.44 342.374H1812.86Z"/>
<path d="M2059.24 208.41V201.54C2059.24 178.182 2059.96 158.603 2061.42 142.802C2062.88 126.887 2065.39 113.948 2068.95 103.987C2072.52 94.0254 2077.36 86.4112 2083.47 81.1442C2089.66 75.8772 2097.41 72.3278 2106.73 70.4958C2116.04 68.5493 2127.25 67.576 2140.35 67.576H2184.35C2199.35 67.576 2211.97 68.721 2222.24 71.011C2232.57 73.1865 2240.87 77.5947 2247.13 84.2357C2253.46 90.7621 2258.04 100.437 2260.88 113.261C2263.49 124.948 2264.9 140.169 2265.11 158.924C2265.14 161.686 2262.9 163.927 2260.14 163.927H2249.18C2246.42 163.927 2244.18 161.686 2244.15 158.925C2243.97 144.716 2243.04 133.502 2241.34 125.284C2239.45 116.009 2236.25 109.311 2231.73 105.189C2227.29 101.067 2221.22 98.5481 2213.5 97.6321C2205.79 96.6016 2196.07 96.0863 2184.35 96.0863H2140.35C2129.95 96.0863 2121.18 96.6016 2114.04 97.6321C2106.91 98.5481 2101.09 100.781 2096.57 104.33C2092.14 107.765 2088.71 113.261 2086.31 120.818C2083.98 128.375 2082.38 138.68 2081.51 151.733C2080.64 164.786 2080.2 181.388 2080.2 201.54V208.41C2080.2 227.875 2080.64 244.019 2081.51 256.843C2082.38 269.667 2083.98 279.915 2086.31 287.586C2088.71 295.258 2092.14 300.983 2096.57 304.761C2101.09 308.54 2106.91 311.001 2114.04 312.146C2121.18 313.291 2129.95 313.864 2140.35 313.864H2184.35C2196.07 313.864 2205.79 313.463 2213.5 312.662C2221.22 311.86 2227.29 309.513 2231.73 305.62C2236.25 301.727 2239.45 295.258 2241.34 286.212C2243.04 278 2243.97 266.844 2244.15 252.743C2244.18 249.982 2246.42 247.741 2249.18 247.741H2260.14C2262.9 247.741 2265.14 249.982 2265.11 252.743C2264.9 271.489 2263.49 286.653 2260.88 298.235C2258.04 310.83 2253.46 320.333 2247.13 326.745C2240.87 333.042 2232.57 337.222 2222.24 339.283C2211.97 341.344 2199.35 342.374 2184.35 342.374H2140.35C2123.98 342.374 2110.51 340.599 2099.96 337.05C2089.41 333.615 2081.14 327.203 2075.18 317.814C2069.28 308.425 2065.13 294.914 2062.73 277.281C2060.4 259.648 2059.24 236.691 2059.24 208.41Z"/>
</mask>
<path d="M1104.44 342.374C1087.65 342.374 1073.85 340.576 1063.03 336.981C1052.21 333.501 1043.74 327.006 1037.62 317.495C1031.57 307.983 1027.32 294.297 1024.85 276.434C1022.47 258.572 1021.27 235.316 1021.27 206.667V199.707C1021.27 176.046 1022.02 156.211 1023.51 140.205C1025 124.082 1027.58 110.976 1031.24 100.885C1034.89 90.7935 1039.85 83.0802 1046.12 77.7447C1052.47 72.4092 1060.41 68.8136 1069.97 66.9577C1079.52 64.9859 1091.01 64 1104.44 64H1149.56C1162.99 64 1174.48 64.9859 1184.03 66.9577C1193.58 68.8136 1201.5 72.4092 1207.76 77.7447C1214.11 83.0802 1219.11 90.7935 1222.76 100.885C1226.42 110.976 1228.99 124.082 1230.49 140.205C1231.98 156.211 1232.73 176.046 1232.73 199.707V206.667C1232.73 235.316 1231.5 258.572 1229.03 276.434C1226.64 294.297 1222.39 307.983 1216.27 317.495C1210.23 327.006 1201.79 333.501 1190.97 336.981C1180.15 340.576 1166.35 342.374 1149.56 342.374H1104.44ZM1104.44 313.493H1149.56C1160.23 313.493 1169.22 312.913 1176.53 311.753C1183.85 310.593 1189.78 308.099 1194.33 304.272C1198.96 300.444 1202.47 294.645 1204.85 286.873C1207.32 279.102 1209 268.721 1209.89 255.73C1210.79 242.739 1211.23 226.385 1211.23 206.667V199.707C1211.23 179.293 1210.79 162.475 1209.89 149.252C1209 136.029 1207.32 125.59 1204.85 117.935C1202.47 110.28 1198.96 104.712 1194.33 101.233C1189.78 97.6369 1183.85 95.3751 1176.53 94.4472C1169.22 93.4033 1160.23 92.8813 1149.56 92.8813H1104.44C1093.77 92.8813 1084.78 93.4033 1077.47 94.4472C1070.15 95.3751 1064.18 97.6369 1059.56 101.233C1055 104.712 1051.5 110.28 1049.03 117.935C1046.65 125.59 1045 136.029 1044.11 149.252C1043.21 162.475 1042.76 179.293 1042.76 199.707V206.667C1042.76 226.385 1043.21 242.739 1044.11 255.73C1045 268.721 1046.65 279.102 1049.03 286.873C1051.5 294.645 1055 300.444 1059.56 304.272C1064.18 308.099 1070.15 310.593 1077.47 311.753C1084.78 312.913 1093.77 313.493 1104.44 313.493Z" fill="#0B0F16"/>
<path d="M1477.02 260.438C1477.02 250.224 1476.5 242.191 1475.45 236.339C1474.4 230.486 1472.04 226.183 1468.37 223.429C1464.69 220.56 1459 218.724 1451.28 217.92C1443.56 217.002 1433 216.371 1419.58 216.027L1357.08 214.65C1341.65 214.305 1329.24 212.871 1319.88 210.346C1310.51 207.822 1303.43 203.863 1298.63 198.469C1293.84 192.961 1290.61 185.616 1288.96 176.436C1287.39 167.255 1286.6 155.779 1286.6 142.009C1286.6 126.976 1287.69 114.582 1289.86 104.827C1292.11 95.0731 1296.12 87.4418 1301.89 81.9335C1307.74 76.4252 1315.98 72.5808 1326.62 70.4004C1337.26 68.1053 1351.01 66.9577 1367.87 66.9577H1415.98C1431.27 66.9577 1444.01 67.7036 1454.2 69.1955C1464.39 70.6873 1472.49 74.13 1478.48 79.5236C1484.48 84.9172 1488.75 93.2944 1491.3 104.655C1493.7 115.044 1495 128.984 1495.2 146.474C1495.24 149.235 1492.99 151.476 1490.23 151.476H1478.65C1475.89 151.476 1473.65 149.235 1473.61 146.474C1473.42 133.561 1472.46 123.638 1470.73 116.705C1468.85 108.787 1465.71 103.393 1461.28 100.524C1456.94 97.6552 1451.06 96.1059 1443.64 95.8764C1436.22 95.6469 1427 95.5322 1415.98 95.5322H1369C1355.58 95.5322 1344.83 95.9338 1336.74 96.7371C1328.72 97.5404 1322.65 99.3765 1318.53 102.245C1314.41 105.114 1311.63 109.705 1310.21 116.016C1308.86 122.328 1308.19 130.992 1308.19 142.009C1308.19 151.304 1308.67 158.763 1309.65 164.386C1310.62 170.009 1312.79 174.313 1316.17 177.296C1319.61 180.165 1324.9 182.174 1332.02 183.321C1339.14 184.354 1348.84 184.985 1361.13 185.215L1428.12 186.592C1443.86 186.936 1456.41 188.37 1465.78 190.895C1475.22 193.305 1482.27 197.264 1486.91 202.772C1491.63 208.281 1494.74 215.74 1496.24 225.15C1497.82 234.445 1498.6 246.208 1498.6 260.438C1498.6 275.93 1497.63 288.955 1495.68 299.512C1493.81 309.955 1490.14 318.333 1484.67 324.644C1479.19 330.956 1471.29 335.489 1460.95 338.243C1450.61 340.997 1437 342.374 1420.14 342.374H1367.54C1352.17 342.374 1339.29 341.341 1328.87 339.276C1318.45 337.21 1310.13 333.079 1303.91 326.882C1297.77 320.57 1293.35 311.218 1290.65 298.824C1288.17 287.447 1286.83 272.59 1286.63 254.252C1286.6 251.49 1288.84 249.249 1291.6 249.249H1303.19C1305.95 249.249 1308.18 251.49 1308.21 254.251C1308.38 268.03 1309.23 278.871 1310.77 286.774C1312.5 295.611 1315.49 301.98 1319.76 305.882C1324.11 309.668 1330.14 311.964 1337.86 312.767C1345.66 313.455 1355.55 313.8 1367.54 313.8H1419.02C1432.43 313.8 1443.04 313.169 1450.83 311.906C1458.62 310.529 1464.39 308.004 1468.14 304.332C1471.89 300.545 1474.29 295.152 1475.34 288.152C1476.46 281.151 1477.02 271.913 1477.02 260.438Z" fill="#0B0F16"/>
<path d="M1648.16 342.374C1645.4 342.374 1643.16 340.136 1643.16 337.374V229.191C1643.16 228.328 1642.93 227.48 1642.51 226.729L1556.7 75.0378C1554.82 71.7047 1557.22 67.576 1561.05 67.576H1576.39C1578.21 67.576 1579.89 68.5699 1580.77 70.1693L1648.85 194.132C1650.75 197.59 1655.72 197.59 1657.61 194.132L1725.69 70.1693C1726.57 68.57 1728.25 67.576 1730.07 67.576H1745.41C1749.24 67.576 1751.65 71.7047 1749.76 75.0378L1663.95 226.729C1663.53 227.48 1663.31 228.328 1663.31 229.191V337.374C1663.31 340.136 1661.07 342.374 1658.31 342.374H1648.16Z" fill="#0B0F16"/>
<path d="M1812.86 342.374C1810.1 342.374 1807.86 340.136 1807.86 337.374V72.5761C1807.86 69.8146 1810.1 67.576 1812.86 67.576H1825.6C1827.26 67.576 1828.81 68.3991 1829.74 69.7731L1985.54 299.915C1985.56 299.952 1985.61 299.974 1985.65 299.974C1985.72 299.974 1985.78 299.914 1985.78 299.84V72.5761C1985.78 69.8146 1988.02 67.576 1990.78 67.576H2000.36C2003.12 67.576 2005.36 69.8146 2005.36 72.576V337.374C2005.36 340.136 2003.12 342.374 2000.36 342.374H1987.63C1985.97 342.374 1984.41 341.544 1983.48 340.161L1827.68 108.068C1827.65 108.031 1827.61 108.009 1827.57 108.009C1827.5 108.009 1827.44 108.068 1827.44 108.142V337.374C1827.44 340.136 1825.2 342.374 1822.44 342.374H1812.86Z" fill="#0B0F16"/>
<path d="M2059.24 208.41V201.54C2059.24 178.182 2059.96 158.603 2061.42 142.802C2062.88 126.887 2065.39 113.948 2068.95 103.987C2072.52 94.0254 2077.36 86.4112 2083.47 81.1442C2089.66 75.8772 2097.41 72.3278 2106.73 70.4958C2116.04 68.5493 2127.25 67.576 2140.35 67.576H2184.35C2199.35 67.576 2211.97 68.721 2222.24 71.011C2232.57 73.1865 2240.87 77.5947 2247.13 84.2357C2253.46 90.7621 2258.04 100.437 2260.88 113.261C2263.49 124.948 2264.9 140.169 2265.11 158.924C2265.14 161.686 2262.9 163.927 2260.14 163.927H2249.18C2246.42 163.927 2244.18 161.686 2244.15 158.925C2243.97 144.716 2243.04 133.502 2241.34 125.284C2239.45 116.009 2236.25 109.311 2231.73 105.189C2227.29 101.067 2221.22 98.5481 2213.5 97.6321C2205.79 96.6016 2196.07 96.0863 2184.35 96.0863H2140.35C2129.95 96.0863 2121.18 96.6016 2114.04 97.6321C2106.91 98.5481 2101.09 100.781 2096.57 104.33C2092.14 107.765 2088.71 113.261 2086.31 120.818C2083.98 128.375 2082.38 138.68 2081.51 151.733C2080.64 164.786 2080.2 181.388 2080.2 201.54V208.41C2080.2 227.875 2080.64 244.019 2081.51 256.843C2082.38 269.667 2083.98 279.915 2086.31 287.586C2088.71 295.258 2092.14 300.983 2096.57 304.761C2101.09 308.54 2106.91 311.001 2114.04 312.146C2121.18 313.291 2129.95 313.864 2140.35 313.864H2184.35C2196.07 313.864 2205.79 313.463 2213.5 312.662C2221.22 311.86 2227.29 309.513 2231.73 305.62C2236.25 301.727 2239.45 295.258 2241.34 286.212C2243.04 278 2243.97 266.844 2244.15 252.743C2244.18 249.982 2246.42 247.741 2249.18 247.741H2260.14C2262.9 247.741 2265.14 249.982 2265.11 252.743C2264.9 271.489 2263.49 286.653 2260.88 298.235C2258.04 310.83 2253.46 320.333 2247.13 326.745C2240.87 333.042 2232.57 337.222 2222.24 339.283C2211.97 341.344 2199.35 342.374 2184.35 342.374H2140.35C2123.98 342.374 2110.51 340.599 2099.96 337.05C2089.41 333.615 2081.14 327.203 2075.18 317.814C2069.28 308.425 2065.13 294.914 2062.73 277.281C2060.4 259.648 2059.24 236.691 2059.24 208.41Z" fill="#0B0F16"/>
<path d="M1104.44 342.374C1087.65 342.374 1073.85 340.576 1063.03 336.981C1052.21 333.501 1043.74 327.006 1037.62 317.495C1031.57 307.983 1027.32 294.297 1024.85 276.434C1022.47 258.572 1021.27 235.316 1021.27 206.667V199.707C1021.27 176.046 1022.02 156.211 1023.51 140.205C1025 124.082 1027.58 110.976 1031.24 100.885C1034.89 90.7935 1039.85 83.0802 1046.12 77.7447C1052.47 72.4092 1060.41 68.8136 1069.97 66.9577C1079.52 64.9859 1091.01 64 1104.44 64H1149.56C1162.99 64 1174.48 64.9859 1184.03 66.9577C1193.58 68.8136 1201.5 72.4092 1207.76 77.7447C1214.11 83.0802 1219.11 90.7935 1222.76 100.885C1226.42 110.976 1228.99 124.082 1230.49 140.205C1231.98 156.211 1232.73 176.046 1232.73 199.707V206.667C1232.73 235.316 1231.5 258.572 1229.03 276.434C1226.64 294.297 1222.39 307.983 1216.27 317.495C1210.23 327.006 1201.79 333.501 1190.97 336.981C1180.15 340.576 1166.35 342.374 1149.56 342.374H1104.44ZM1104.44 313.493H1149.56C1160.23 313.493 1169.22 312.913 1176.53 311.753C1183.85 310.593 1189.78 308.099 1194.33 304.272C1198.96 300.444 1202.47 294.645 1204.85 286.873C1207.32 279.102 1209 268.721 1209.89 255.73C1210.79 242.739 1211.23 226.385 1211.23 206.667V199.707C1211.23 179.293 1210.79 162.475 1209.89 149.252C1209 136.029 1207.32 125.59 1204.85 117.935C1202.47 110.28 1198.96 104.712 1194.33 101.233C1189.78 97.6369 1183.85 95.3751 1176.53 94.4472C1169.22 93.4033 1160.23 92.8813 1149.56 92.8813H1104.44C1093.77 92.8813 1084.78 93.4033 1077.47 94.4472C1070.15 95.3751 1064.18 97.6369 1059.56 101.233C1055 104.712 1051.5 110.28 1049.03 117.935C1046.65 125.59 1045 136.029 1044.11 149.252C1043.21 162.475 1042.76 179.293 1042.76 199.707V206.667C1042.76 226.385 1043.21 242.739 1044.11 255.73C1045 268.721 1046.65 279.102 1049.03 286.873C1051.5 294.645 1055 300.444 1059.56 304.272C1064.18 308.099 1070.15 310.593 1077.47 311.753C1084.78 312.913 1093.77 313.493 1104.44 313.493Z" stroke="#0B0F16" stroke-width="6" mask="url(#path-1-outside-1_431_108)"/>
<path d="M1477.02 260.438C1477.02 250.224 1476.5 242.191 1475.45 236.339C1474.4 230.486 1472.04 226.183 1468.37 223.429C1464.69 220.56 1459 218.724 1451.28 217.92C1443.56 217.002 1433 216.371 1419.58 216.027L1357.08 214.65C1341.65 214.305 1329.24 212.871 1319.88 210.346C1310.51 207.822 1303.43 203.863 1298.63 198.469C1293.84 192.961 1290.61 185.616 1288.96 176.436C1287.39 167.255 1286.6 155.779 1286.6 142.009C1286.6 126.976 1287.69 114.582 1289.86 104.827C1292.11 95.0731 1296.12 87.4418 1301.89 81.9335C1307.74 76.4252 1315.98 72.5808 1326.62 70.4004C1337.26 68.1053 1351.01 66.9577 1367.87 66.9577H1415.98C1431.27 66.9577 1444.01 67.7036 1454.2 69.1955C1464.39 70.6873 1472.49 74.13 1478.48 79.5236C1484.48 84.9172 1488.75 93.2944 1491.3 104.655C1493.7 115.044 1495 128.984 1495.2 146.474C1495.24 149.235 1492.99 151.476 1490.23 151.476H1478.65C1475.89 151.476 1473.65 149.235 1473.61 146.474C1473.42 133.561 1472.46 123.638 1470.73 116.705C1468.85 108.787 1465.71 103.393 1461.28 100.524C1456.94 97.6552 1451.06 96.1059 1443.64 95.8764C1436.22 95.6469 1427 95.5322 1415.98 95.5322H1369C1355.58 95.5322 1344.83 95.9338 1336.74 96.7371C1328.72 97.5404 1322.65 99.3765 1318.53 102.245C1314.41 105.114 1311.63 109.705 1310.21 116.016C1308.86 122.328 1308.19 130.992 1308.19 142.009C1308.19 151.304 1308.67 158.763 1309.65 164.386C1310.62 170.009 1312.79 174.313 1316.17 177.296C1319.61 180.165 1324.9 182.174 1332.02 183.321C1339.14 184.354 1348.84 184.985 1361.13 185.215L1428.12 186.592C1443.86 186.936 1456.41 188.37 1465.78 190.895C1475.22 193.305 1482.27 197.264 1486.91 202.772C1491.63 208.281 1494.74 215.74 1496.24 225.15C1497.82 234.445 1498.6 246.208 1498.6 260.438C1498.6 275.93 1497.63 288.955 1495.68 299.512C1493.81 309.955 1490.14 318.333 1484.67 324.644C1479.19 330.956 1471.29 335.489 1460.95 338.243C1450.61 340.997 1437 342.374 1420.14 342.374H1367.54C1352.17 342.374 1339.29 341.341 1328.87 339.276C1318.45 337.21 1310.13 333.079 1303.91 326.882C1297.77 320.57 1293.35 311.218 1290.65 298.824C1288.17 287.447 1286.83 272.59 1286.63 254.252C1286.6 251.49 1288.84 249.249 1291.6 249.249H1303.19C1305.95 249.249 1308.18 251.49 1308.21 254.251C1308.38 268.03 1309.23 278.871 1310.77 286.774C1312.5 295.611 1315.49 301.98 1319.76 305.882C1324.11 309.668 1330.14 311.964 1337.86 312.767C1345.66 313.455 1355.55 313.8 1367.54 313.8H1419.02C1432.43 313.8 1443.04 313.169 1450.83 311.906C1458.62 310.529 1464.39 308.004 1468.14 304.332C1471.89 300.545 1474.29 295.152 1475.34 288.152C1476.46 281.151 1477.02 271.913 1477.02 260.438Z" stroke="#0B0F16" stroke-width="6" mask="url(#path-1-outside-1_431_108)"/>
<path d="M1648.16 342.374C1645.4 342.374 1643.16 340.136 1643.16 337.374V229.191C1643.16 228.328 1642.93 227.48 1642.51 226.729L1556.7 75.0378C1554.82 71.7047 1557.22 67.576 1561.05 67.576H1576.39C1578.21 67.576 1579.89 68.5699 1580.77 70.1693L1648.85 194.132C1650.75 197.59 1655.72 197.59 1657.61 194.132L1725.69 70.1693C1726.57 68.57 1728.25 67.576 1730.07 67.576H1745.41C1749.24 67.576 1751.65 71.7047 1749.76 75.0378L1663.95 226.729C1663.53 227.48 1663.31 228.328 1663.31 229.191V337.374C1663.31 340.136 1661.07 342.374 1658.31 342.374H1648.16Z" stroke="#0B0F16" stroke-width="6" mask="url(#path-1-outside-1_431_108)"/>
<path d="M1812.86 342.374C1810.1 342.374 1807.86 340.136 1807.86 337.374V72.5761C1807.86 69.8146 1810.1 67.576 1812.86 67.576H1825.6C1827.26 67.576 1828.81 68.3991 1829.74 69.7731L1985.54 299.915C1985.56 299.952 1985.61 299.974 1985.65 299.974C1985.72 299.974 1985.78 299.914 1985.78 299.84V72.5761C1985.78 69.8146 1988.02 67.576 1990.78 67.576H2000.36C2003.12 67.576 2005.36 69.8146 2005.36 72.576V337.374C2005.36 340.136 2003.12 342.374 2000.36 342.374H1987.63C1985.97 342.374 1984.41 341.544 1983.48 340.161L1827.68 108.068C1827.65 108.031 1827.61 108.009 1827.57 108.009C1827.5 108.009 1827.44 108.068 1827.44 108.142V337.374C1827.44 340.136 1825.2 342.374 1822.44 342.374H1812.86Z" stroke="#0B0F16" stroke-width="6" mask="url(#path-1-outside-1_431_108)"/>
<path d="M2059.24 208.41V201.54C2059.24 178.182 2059.96 158.603 2061.42 142.802C2062.88 126.887 2065.39 113.948 2068.95 103.987C2072.52 94.0254 2077.36 86.4112 2083.47 81.1442C2089.66 75.8772 2097.41 72.3278 2106.73 70.4958C2116.04 68.5493 2127.25 67.576 2140.35 67.576H2184.35C2199.35 67.576 2211.97 68.721 2222.24 71.011C2232.57 73.1865 2240.87 77.5947 2247.13 84.2357C2253.46 90.7621 2258.04 100.437 2260.88 113.261C2263.49 124.948 2264.9 140.169 2265.11 158.924C2265.14 161.686 2262.9 163.927 2260.14 163.927H2249.18C2246.42 163.927 2244.18 161.686 2244.15 158.925C2243.97 144.716 2243.04 133.502 2241.34 125.284C2239.45 116.009 2236.25 109.311 2231.73 105.189C2227.29 101.067 2221.22 98.5481 2213.5 97.6321C2205.79 96.6016 2196.07 96.0863 2184.35 96.0863H2140.35C2129.95 96.0863 2121.18 96.6016 2114.04 97.6321C2106.91 98.5481 2101.09 100.781 2096.57 104.33C2092.14 107.765 2088.71 113.261 2086.31 120.818C2083.98 128.375 2082.38 138.68 2081.51 151.733C2080.64 164.786 2080.2 181.388 2080.2 201.54V208.41C2080.2 227.875 2080.64 244.019 2081.51 256.843C2082.38 269.667 2083.98 279.915 2086.31 287.586C2088.71 295.258 2092.14 300.983 2096.57 304.761C2101.09 308.54 2106.91 311.001 2114.04 312.146C2121.18 313.291 2129.95 313.864 2140.35 313.864H2184.35C2196.07 313.864 2205.79 313.463 2213.5 312.662C2221.22 311.86 2227.29 309.513 2231.73 305.62C2236.25 301.727 2239.45 295.258 2241.34 286.212C2243.04 278 2243.97 266.844 2244.15 252.743C2244.18 249.982 2246.42 247.741 2249.18 247.741H2260.14C2262.9 247.741 2265.14 249.982 2265.11 252.743C2264.9 271.489 2263.49 286.653 2260.88 298.235C2258.04 310.83 2253.46 320.333 2247.13 326.745C2240.87 333.042 2232.57 337.222 2222.24 339.283C2211.97 341.344 2199.35 342.374 2184.35 342.374H2140.35C2123.98 342.374 2110.51 340.599 2099.96 337.05C2089.41 333.615 2081.14 327.203 2075.18 317.814C2069.28 308.425 2065.13 294.914 2062.73 277.281C2060.4 259.648 2059.24 236.691 2059.24 208.41Z" stroke="#0B0F16" stroke-width="6" mask="url(#path-1-outside-1_431_108)"/>
<path d="M958.711 62.5L959.046 62.5088C962.481 62.683 965.211 65.5224 965.211 69V87.9971C965.211 91.5869 962.301 94.4971 958.711 94.4971H795.629C793.697 94.4972 792.13 96.0643 792.129 97.9971V308.377C792.13 310.31 793.697 311.877 795.629 311.877H962.394C965.984 311.877 968.894 314.787 968.894 318.377V337.374C968.894 340.964 965.984 343.874 962.394 343.874H770.377C766.788 343.874 763.877 340.964 763.877 337.374V69C763.877 65.4102 766.788 62.5 770.377 62.5H958.711Z" fill="#0B0F16" stroke="#0B0F16" stroke-width="3"/>
<path d="M951.479 184.289C955.068 184.289 957.979 187.199 957.979 190.789V209.786C957.979 213.375 955.068 216.285 951.479 216.286H815.641C812.051 216.286 809.141 213.376 809.141 209.786V190.789C809.141 187.199 812.051 184.289 815.641 184.289H951.479Z" fill="#0B0F16" stroke="#0B0F16" stroke-width="3"/>
<path d="M706.5 67.116C710.09 67.116 713 70.0262 713 73.616V92.1326C713 95.7224 710.09 98.6326 706.5 98.6326H541.718C539.785 98.6329 538.218 100.2 538.218 102.133V337.374C538.218 340.964 535.308 343.874 531.718 343.874H515C511.41 343.874 508.5 340.964 508.5 337.374V73.616C508.5 70.0262 511.41 67.116 515 67.116H706.5Z" fill="#0B0F16" stroke="#0B0F16" stroke-width="3"/>
<path d="M698.568 186.885C702.158 186.885 705.068 189.795 705.068 193.385V211.902C705.068 215.492 702.158 218.402 698.568 218.402H561.666C558.072 218.402 555.16 215.485 555.166 211.891L555.197 193.374C555.203 189.789 558.111 186.885 561.697 186.885H698.568Z" fill="#0B0F16" stroke="#0B0F16" stroke-width="3"/>
<path d="M0 19.5312C0 8.74444 8.72739 0 19.4932 0H379.727C390.493 0 399.22 8.74444 399.22 19.5312V380.469C399.22 391.256 390.493 400 379.727 400H19.4932C8.72739 400 0 391.256 0 380.469V19.5312Z" fill="#0B0F16"/>
<path d="M127.113 47.6563L198.848 47.6562L117.739 351.562H48.3431L127.113 47.6563Z" fill="#F7F7F7"/>
<path d="M246.444 48.4375H400V103.516L310.701 116.267L162.963 352.344L204.703 198.679L246.444 48.4375Z" fill="#F7F7F7"/>
</svg>
