<svg width="2699" height="422" viewBox="0 0 2699 422" fill="none" xmlns="http://www.w3.org/2000/svg">
<path d="M0 19.5312C0 8.74444 8.72739 0 19.4932 0H379.727C390.493 0 399.22 8.74444 399.22 19.5312V380.469C399.22 391.256 390.493 400 379.727 400H19.4932C8.72739 400 0 391.256 0 380.469V19.5312Z" fill="#0B0F16"/>
<path d="M127.113 47.6563L198.848 47.6562L117.739 351.562H48.3431L127.113 47.6563Z" fill="#F7F7F7"/>
<path d="M246.444 48.4375H400V103.516L310.701 116.267L162.963 352.344L204.703 198.679L246.444 48.4375Z" fill="#F7F7F7"/>
<path d="M1072.1 297.553C1080.39 297.553 1087.28 304.303 1086.2 312.516C1085.16 320.343 1083.24 326.919 1080.44 332.245C1076.11 340.676 1069.44 346.828 1060.44 350.702C1051.44 354.576 1039.93 357.025 1025.92 358.051C1012.02 359.19 995.444 359.76 976.189 359.76C954.201 359.76 935.516 358.62 920.135 356.342C904.868 354.177 892.506 349.677 883.05 342.841C873.707 335.891 866.871 325.523 862.542 311.737C858.326 297.951 856.219 279.551 856.219 256.537C856.219 234.206 858.27 216.319 862.371 202.875C866.587 189.431 873.366 179.291 882.708 172.455C892.05 165.619 904.298 161.062 919.451 158.783C934.718 156.505 953.346 155.365 975.335 155.365C1000.51 155.365 1021.36 157.131 1037.88 160.663C1054.4 164.195 1066.71 170.917 1074.8 180.829C1083 190.741 1087.1 205.268 1087.1 224.408V251.62C1087.1 259.904 1080.39 266.62 1072.1 266.62H904.32C895.99 266.62 889.179 273.415 889.71 281.728C890.208 289.512 891.064 296.154 892.278 301.654C894.215 310.427 898.089 317.035 903.899 321.479C909.71 325.922 918.369 328.884 929.876 330.365C941.497 331.732 956.935 332.416 976.189 332.416C993.507 332.416 1007.46 332.074 1018.06 331.391C1028.77 330.707 1036.86 329.226 1042.33 326.947C1047.91 324.555 1051.67 321.023 1053.61 316.352C1054.1 315.149 1054.54 313.841 1054.91 312.428C1057.01 304.414 1063.23 297.553 1071.51 297.553H1072.1ZM975.335 182.709C956.764 182.709 941.782 183.393 930.389 184.76C919.109 186.127 910.507 188.804 904.583 192.792C898.659 196.666 894.614 202.476 892.449 210.224C891.291 214.6 890.441 219.759 889.901 225.699C889.145 234.001 896.001 240.814 904.338 240.814H1040.66C1048.94 240.814 1055.66 234.099 1055.66 225.814V224.408C1055.66 216.205 1054.69 209.426 1052.75 204.071C1050.93 198.603 1047.28 194.33 1041.81 191.254C1036.35 188.064 1028.26 185.842 1017.55 184.589C1006.95 183.336 992.881 182.709 975.335 182.709Z" fill="#0B0F16"/>
<path d="M1276.17 359.76C1254.18 359.76 1235.5 358.62 1220.12 356.342C1204.74 354.177 1192.32 349.677 1182.86 342.841C1173.4 335.891 1166.51 325.523 1162.18 311.737C1157.85 297.951 1155.69 279.551 1155.69 256.537C1155.69 234.206 1157.85 216.319 1162.18 202.875C1166.51 189.431 1173.4 179.291 1182.86 172.455C1192.32 165.619 1204.74 161.062 1220.12 158.783C1235.5 156.505 1254.18 155.365 1276.17 155.365C1298.27 155.365 1316.96 156.505 1332.23 158.783C1347.61 161.062 1360.03 165.619 1369.48 172.455C1378.94 179.291 1385.83 189.431 1390.16 202.875C1394.49 216.319 1396.65 234.206 1396.65 256.537C1396.65 279.551 1394.49 297.951 1390.16 311.737C1385.83 325.523 1378.94 335.891 1369.48 342.841C1360.03 349.677 1347.61 354.177 1332.23 356.342C1316.96 358.62 1298.27 359.76 1276.17 359.76ZM1363.84 256.537C1363.84 240.245 1362.99 227.2 1361.28 217.401C1359.68 207.603 1356.09 200.255 1350.51 195.355C1344.93 190.342 1336.21 186.981 1324.36 185.272C1312.63 183.563 1296.56 182.709 1276.17 182.709C1255.89 182.709 1239.83 183.563 1227.98 185.272C1216.13 186.981 1207.41 190.342 1201.83 195.355C1196.25 200.255 1192.6 207.603 1190.89 217.401C1189.3 227.2 1188.5 240.245 1188.5 256.537C1188.5 273.399 1189.3 286.9 1190.89 297.04C1192.6 307.18 1196.25 314.813 1201.83 319.94C1207.41 324.953 1216.13 328.314 1227.98 330.023C1239.83 331.618 1255.89 332.416 1276.17 332.416C1296.56 332.416 1312.63 331.618 1324.36 330.023C1336.21 328.314 1344.93 324.953 1350.51 319.94C1356.09 314.813 1359.68 307.18 1361.28 297.04C1362.99 286.9 1363.84 273.399 1363.84 256.537Z" fill="#0B0F16"/>
<path d="M1756.79 280.121C1756.79 269.981 1755.99 262.006 1754.4 256.195C1752.8 250.385 1749.22 246.112 1743.63 243.378C1738.05 240.53 1729.39 238.707 1717.66 237.909C1705.92 236.998 1689.86 236.371 1669.46 236.029L1574.44 234.662C1550.97 234.32 1532.12 232.896 1517.88 230.39C1503.63 227.883 1492.87 223.952 1485.58 218.598C1478.28 213.129 1473.39 205.837 1470.88 196.723C1468.49 187.608 1467.29 176.215 1467.29 162.543C1467.29 147.618 1468.94 135.313 1472.25 125.629C1475.66 115.945 1481.76 108.368 1490.53 102.899C1499.42 97.4307 1511.95 93.6139 1528.13 91.4492C1544.31 89.1706 1565.21 88.0312 1590.85 88.0312H1663.99C1687.24 88.0312 1706.6 88.7718 1722.1 90.2529C1737.59 91.734 1749.9 95.152 1759.01 100.507C1768.13 105.862 1774.62 114.179 1778.5 125.458C1781.41 133.702 1783.26 144.199 1784.04 156.948C1784.55 165.217 1777.76 171.942 1769.48 171.942H1766.67C1758.38 171.942 1751.79 165.21 1751.09 156.955C1750.41 148.899 1749.12 142.387 1747.22 137.421C1744.37 129.56 1739.59 124.205 1732.87 121.356C1726.26 118.508 1717.31 116.97 1706.04 116.742C1694.76 116.514 1680.74 116.4 1663.99 116.4H1592.56C1572.16 116.4 1555.82 116.799 1543.51 117.597C1531.32 118.394 1522.09 120.217 1515.83 123.065C1509.56 125.914 1505.34 130.471 1503.18 136.737C1501.13 143.004 1500.1 151.605 1500.1 162.543C1500.1 171.771 1500.84 179.177 1502.32 184.76C1503.81 190.342 1507.11 194.615 1512.24 197.577C1517.48 200.425 1525.51 202.419 1536.33 203.559C1547.16 204.584 1561.91 205.211 1580.6 205.438L1682.45 206.806C1706.38 207.147 1725.46 208.572 1739.7 211.078C1754.06 213.471 1764.77 217.401 1771.83 222.87C1779.01 228.339 1783.74 235.744 1786.02 245.087C1788.41 254.315 1789.6 265.993 1789.6 280.121C1789.6 295.502 1788.12 308.433 1785.16 318.915C1782.31 329.283 1776.73 337.6 1768.41 343.866C1760.1 350.132 1748.08 354.633 1732.35 357.367C1716.63 360.102 1695.95 361.469 1670.32 361.469H1590.34C1566.98 361.469 1547.38 360.443 1531.55 358.393C1515.71 356.342 1503.06 352.24 1493.61 346.088C1484.27 339.822 1477.54 330.536 1473.44 318.231C1470.39 309.088 1468.48 297.68 1467.7 284.007C1467.22 275.736 1474.01 269.013 1482.29 269.013H1485.1C1493.39 269.013 1500.01 275.738 1500.55 284.005C1501.13 293.03 1502.3 300.451 1504.03 306.269C1506.65 315.041 1511.21 321.365 1517.71 325.238C1524.31 328.998 1533.48 331.277 1545.22 332.074C1557.07 332.758 1572.11 333.1 1590.34 333.1H1668.61C1689 333.1 1705.12 332.473 1716.97 331.22C1728.82 329.853 1737.59 327.346 1743.29 323.7C1748.99 319.94 1752.63 314.586 1754.23 307.636C1755.94 300.686 1756.79 291.514 1756.79 280.121Z" fill="#0B0F16"/>
<path d="M1908.43 421.386C1900.89 421.664 1894.76 415.504 1894.76 407.953C1894.76 400.402 1900.89 394.311 1908.43 394.131C1914.25 393.993 1919.38 393.758 1923.81 393.427C1931.56 392.971 1938 391.547 1943.13 389.154C1948.37 386.876 1953.04 383.116 1957.14 377.875C1960.22 374.048 1963.39 369.129 1966.65 363.115C1968.41 359.869 1965.99 356 1962.3 356C1960.49 356 1958.81 355.016 1957.93 353.43L1862.37 181.41C1856.81 171.412 1864.04 159.125 1875.48 159.125H1878.66C1884.16 159.125 1889.22 162.134 1891.84 166.966L1966.9 305.16C1972.8 316.029 1988.58 315.484 1993.72 304.234L2056.02 167.891C2058.46 162.551 2063.79 159.125 2069.66 159.125H2074.63C2085.68 159.125 2092.93 170.661 2088.15 180.619L1998.67 366.938C1994.22 376.166 1989.61 384.198 1984.83 391.034C1980.15 397.87 1974.23 403.567 1967.05 408.124C1959.99 412.681 1950.7 416.042 1939.2 418.207C1930.73 419.883 1920.48 420.943 1908.43 421.386Z" fill="#0B0F16"/>
<path d="M2179.15 356C2170.87 356 2164.15 349.284 2164.15 341V174.125C2164.15 165.841 2170.87 159.125 2179.15 159.125H2190.47C2194.06 159.125 2196.96 162.031 2196.96 165.617C2196.96 171.873 2205.83 175.183 2210.89 171.507C2212.24 170.526 2213.64 169.589 2215.08 168.695C2222.37 164.252 2232.06 160.948 2244.13 158.783C2256.32 156.505 2272.27 155.365 2291.98 155.365C2317.73 155.365 2338.01 157.872 2352.82 162.885C2367.75 167.898 2378.35 176.841 2384.61 189.716C2390.88 202.59 2394.01 220.819 2394.01 244.403V341C2394.01 349.284 2387.3 356 2379.01 356H2376.03C2367.74 356 2361.03 349.284 2361.03 341V244.403C2361.03 230.959 2359.89 220.136 2357.61 211.933C2355.33 203.729 2351.4 197.52 2345.82 193.305C2340.35 189.089 2332.77 186.298 2323.09 184.931C2313.4 183.45 2301.1 182.709 2286.17 182.709C2263.39 182.709 2245.5 184.589 2232.51 188.349C2219.52 192.108 2210.35 198.033 2205 206.122C2199.64 214.097 2196.96 224.522 2196.96 237.396V341C2196.96 349.284 2190.25 356 2181.96 356H2179.15Z" fill="#0B0F16"/>
<path d="M2583.76 359.76C2561.77 359.76 2543.09 358.62 2527.71 356.342C2512.33 354.177 2499.91 349.677 2490.45 342.841C2481 335.891 2474.1 325.523 2469.77 311.737C2465.44 297.951 2463.28 279.551 2463.28 256.537C2463.28 234.206 2465.44 216.319 2469.77 202.875C2474.1 189.431 2481 179.291 2490.45 172.455C2499.91 165.619 2512.33 161.062 2527.71 158.783C2543.09 156.505 2561.77 155.365 2583.76 155.365C2610.08 155.365 2631.73 156.903 2648.7 159.979C2665.79 162.942 2678.44 169.094 2686.64 178.437C2692.54 185.157 2696.32 194.413 2697.98 206.204C2699.13 214.408 2692.23 221.161 2683.95 221.161H2682.5C2674.22 221.161 2667.98 214.281 2665.69 206.317C2664.55 202.348 2662.88 199.035 2660.67 196.381C2656.11 190.912 2647.79 187.266 2635.72 185.443C2623.64 183.62 2606.32 182.709 2583.76 182.709C2563.48 182.709 2547.42 183.563 2535.57 185.272C2523.72 186.981 2515 190.342 2509.42 195.355C2503.84 200.255 2500.19 207.603 2498.48 217.401C2496.89 227.2 2496.09 240.245 2496.09 256.537C2496.09 273.399 2496.89 286.9 2498.48 297.04C2500.19 307.18 2503.84 314.813 2509.42 319.94C2515 324.953 2523.72 328.314 2535.57 330.023C2547.42 331.618 2563.48 332.416 2583.76 332.416C2600.97 332.416 2615.04 331.96 2625.97 331.049C2636.91 330.023 2645.4 328.087 2651.44 325.238C2657.48 322.276 2661.64 318.061 2663.91 312.592C2664.84 310.431 2665.59 307.997 2666.15 305.289C2667.85 297.181 2674.22 290.375 2682.5 290.375H2683.95C2692.23 290.375 2699.11 297.12 2698.11 305.344C2697.07 313.873 2695.07 321.131 2692.11 327.118C2687.56 336.347 2680.61 343.297 2671.26 347.968C2661.92 352.639 2649.96 355.772 2635.37 357.367C2620.9 358.962 2603.7 359.76 2583.76 359.76Z" fill="#0B0F16"/>
<path d="M578.625 341C578.625 349.284 571.909 356 563.625 356H560.812C552.528 356 545.812 349.284 545.812 341V108.5C545.812 100.216 552.528 93.5 560.813 93.5H779.602C787.152 93.5 793.273 99.6211 793.273 107.172C793.273 114.723 787.152 120.844 779.602 120.844H593.625C585.341 120.844 578.625 127.559 578.625 135.844V208.344V235.688V341Z" fill="#0B0F16"/>
<path d="M769.86 208.344C777.411 208.344 783.532 214.465 783.532 222.016C783.532 229.566 777.411 235.688 769.86 235.688H628.672C621.121 235.688 615 229.566 615 222.016C615 214.465 621.121 208.344 628.672 208.344H769.86Z" fill="#0B0F16"/>
</svg>
